# xmcd
#
# Track frame offsets:
#	150
#	17373
#	27582
#	44812
#	60897
#	83022
#	104394
#	122624
#	138054
#	156374
#	170215
#	187114
#	199248
#	219854
#	237154
#	255917
#	270753
#	288388
#	293063
#	317387
#	329407
#
# Disc length: 4618 seconds
# Revision: 0
# Processed by: cddbd v1.5.2PL0 Copyright (c) Steve Scherf et al.
# Submitted via: dBpowerAMP V12.0
#
DISCID=22120815
DTITLE=Jerry Lee Lewis - Rockin' Around The Country
DYEAR=1900
DGENRE=
TTITLE0=Bony Maronie
TTITLE1=I Ain't Living Long Like This
TTITLE2=Trouble In Mind
TTITLE3=Good News Travels Fast
TTITLE4=Over The Rainbow
TTITLE5=Only Love Can Get You In My Door
TTITLE6=Me And Bobby McGee
TTITLE7=She Sang Amazing Grace
TTITLE8=Middle Age Crazy
TTITLE9=Another Place Another Time
TTITLE10=You Win Again
TTITLE11=She Sure Makes Leavin' Look Easy
TTITLE12=Little Queenie - Boogie Woogie Country Man
TTITLE13=39 And Holding
TTITLE14=The One Rose (That's Left In My Heart)
TTITLE15=Georgia On My Mind
TTITLE16=Sweet Little Sixteen - Chantilly Lace
TTITLE17=Great Balls Of Fire
TTITLE18=Whole Lotta Shakin' Going On - Meat Man
TTITLE19=Room Full Of Roses
TTITLE20=Rock'n'Roll Medley
EXTD=
EXTT0=
EXTT1=
EXTT2=
EXTT3=
EXTT4=
EXTT5=
EXTT6=
EXTT7=
EXTT8=
EXTT9=
EXTT10=
EXTT11=
EXTT12=
EXTT13=
EXTT14=
EXTT15=
EXTT16=
EXTT17=
EXTT18=
EXTT19=
EXTT20=
PLAYORDER=
